<svg xmlns="http://www.w3.org/2000/svg" viewBox="0 0 1000 1386">
    <g transform="translate(0, 1000) scale(1, -1)">
        <path d="M500 50C445 50 400 95 400 150C400 205 445 250 500 250C555 250 600 205 600 150C600 95 555 50 500 50ZM800 0C800 6 799 11 797 17C753 138 695 234 648 284C609 323 561 350 500 350C390 350 300 260 300 150C300 40 390 -50 500 -50C575 -50 641 -8 675 53C685 31 694 8 703 -17C710 -37 729 -50 750 -50C780 -50 800 -26 800 0ZM550 800C550 828 528 850 500 850C472 850 450 828 450 800V450C450 422 472 400 500 400C528 400 550 422 550 450Z" />
    </g>
</svg>