<svg xmlns="http://www.w3.org/2000/svg" viewBox="0 0 1000 1386">
    <g transform="translate(0, 1000) scale(1, -1)">
        <path d="M675 690C716 690 750 724 750 765C750 806 716 840 675 840C634 840 600 806 600 765C600 724 634 690 675 690ZM588 160C583 143 577 126 569 112C549 75 525 60 500 60C475 60 451 75 431 112C423 126 417 143 412 160ZM400 360H600V260H400ZM588 460H412C417 477 423 494 431 508C451 545 475 560 500 560C525 560 549 545 569 508C577 494 583 477 588 460ZM500 660C425 660 374 610 344 557C328 527 316 494 309 460H219C191 460 169 438 169 410C169 382 191 360 219 360H300V260H219C191 260 169 238 169 210C169 182 191 160 219 160H309C316 126 328 93 344 63C374 10 425 -40 500 -40C575 -40 626 10 656 63C672 93 684 126 691 160H781C809 160 831 182 831 210C831 238 809 260 781 260H700V360H781C809 360 831 382 831 410C831 438 809 460 781 460H691C684 494 672 527 656 557C626 610 575 660 500 660ZM400 765C400 806 366 840 325 840C284 840 250 806 250 765C250 724 284 690 325 690C366 690 400 724 400 765Z" />
    </g>
</svg>