<svg xmlns="http://www.w3.org/2000/svg" viewBox="0 0 1000 1386">
    <g transform="translate(0, 1000) scale(1, -1)">
        <path d="M750 795C750 836 716 870 675 870C634 870 600 836 600 795C600 754 634 720 675 720C716 720 750 754 750 795ZM575 108C573 103 570 98 568 94C548 54 524 40 500 40C476 40 452 54 432 94C430 98 427 103 425 108ZM600 270V250C600 236 599 222 598 208H402C401 222 400 236 400 250V270ZM575 530H425C427 536 429 541 432 546C452 586 476 600 500 600C524 600 548 586 568 546C571 541 573 536 575 530ZM402 430H598C599 417 600 404 600 390V370H400V390C400 404 401 417 402 430ZM500 -60C599 -60 657 24 681 108H781C809 108 831 130 831 158C831 186 809 208 781 208H698C699 222 700 236 700 250V270H800C828 270 850 292 850 320C850 348 828 370 800 370H700V390C700 403 700 417 699 430H781C809 430 831 452 831 480C831 508 809 530 781 530H681C658 615 600 700 500 700C400 700 342 615 319 530H219C191 530 169 508 169 480C169 452 191 430 219 430H301C300 417 300 403 300 390V370H200C172 370 150 348 150 320C150 292 172 270 200 270H300V250C300 236 301 222 302 208H219C191 208 169 186 169 158C169 130 191 108 219 108H319C343 24 401 -60 500 -60ZM325 720C366 720 400 754 400 795C400 836 366 870 325 870C284 870 250 836 250 795C250 754 284 720 325 720Z" />
    </g>
</svg>