<svg xmlns="http://www.w3.org/2000/svg" viewBox="0 0 1000 1386">
    <g transform="translate(0, 1000) scale(1, -1)">
        <path d="M300 350H541C521 221 441 122 300 103ZM541 450H300V697C441 678 521 578 541 450ZM642 350H779L715 285C705 275 700 262 700 250C700 224 724 200 750 200C762 200 775 205 785 215L935 365C944 374 950 384 950 400C950 416 944 426 935 435L785 585C775 595 762 600 750 600C724 600 700 576 700 550C700 538 705 525 715 515L779 450H642C620 646 478 800 250 800C222 800 200 778 200 750V450H100C72 450 50 428 50 400C50 372 72 350 100 350H200V50C200 22 222 0 250 0C478 0 620 154 642 350Z" />
    </g>
</svg>