<svg xmlns="http://www.w3.org/2000/svg" viewBox="0 0 1000 1386">
    <g transform="translate(0, 1000) scale(1, -1)">
        <path d="M150 0C160 0 171 3 180 10L500 250L820 10C829 3 840 0 850 0C876 0 900 22 900 50C900 65 893 80 880 90L530 352C521 358 510 362 500 362C490 362 479 358 470 352L120 90C107 80 100 65 100 50C100 22 124 0 150 0ZM850 800C840 800 829 797 820 790L500 550L180 790C171 797 160 800 150 800C124 800 100 778 100 750C100 735 107 720 120 710L470 448C479 442 490 438 500 438C510 438 521 442 530 448L880 710C893 720 900 735 900 750C900 778 876 800 850 800Z" />
    </g>
</svg>