<svg xmlns="http://www.w3.org/2000/svg" viewBox="0 0 1000 1386">
    <g transform="translate(0, 1000) scale(1, -1)">
        <path d="M450 800C450 788 455 775 465 765L829 400L465 35C455 25 450 12 450 0C450 -26 474 -50 500 -50C512 -50 525 -45 535 -35L935 365C945 375 950 388 950 400C950 412 945 425 935 435L535 835C525 845 512 850 500 850C474 850 450 826 450 800ZM50 800C50 788 55 775 65 765L429 400L65 35C55 25 50 12 50 0C50 -26 74 -50 100 -50C112 -50 125 -45 135 -35L535 365C545 375 550 388 550 400C550 412 545 425 535 435L135 835C125 845 112 850 100 850C74 850 50 826 50 800Z" />
    </g>
</svg>