<svg xmlns="http://www.w3.org/2000/svg" viewBox="0 0 1000 1386">
    <g transform="translate(0, 1000) scale(1, -1)">
        <path d="M500 826C472 826 450 804 450 776V592C450 564 472 542 500 542C528 542 550 564 550 592V776C550 804 528 826 500 826ZM200 725C200 719 201 712 204 705L274 535C282 516 300 504 319 504C349 504 370 528 370 553C370 559 369 566 366 573L296 743C288 762 270 774 251 774C221 774 200 750 200 725ZM681 504C700 504 718 516 726 535L796 705C799 712 800 719 800 725C800 750 779 774 749 774C730 774 712 762 704 743L634 573C631 566 630 559 630 553C630 528 651 504 681 504ZM500 80C362 80 250 192 250 330C250 358 228 380 200 380C172 380 150 358 150 330C150 137 307 -20 500 -20C693 -20 850 137 850 330C850 358 828 380 800 380C772 380 750 358 750 330C750 192 638 80 500 80Z" />
    </g>
</svg>