<svg xmlns="http://www.w3.org/2000/svg" viewBox="0 0 1000 1386">
    <g transform="translate(0, 1000) scale(1, -1)">
        <path d="M600 542C615 588 628 628 636 651C648 688 666 711 686 726C705 741 731 750 767 750C804 750 821 741 831 731C841 721 850 704 850 667C850 630 841 601 820 580C799 559 759 539 678 539C651 539 625 540 600 542ZM399 256C384 211 372 173 364 149C351 109 333 86 314 72C295 58 270 50 233 50C196 50 179 59 169 69C159 79 150 96 150 133C150 170 160 202 178 223C195 243 227 261 287 261C327 261 364 259 399 256ZM50 800C50 793 51 786 54 780L55 779C55 773 59 769 62 763C67 753 75 740 86 724C107 692 141 649 189 607C254 550 345 494 468 463C456 426 444 389 432 353C387 358 339 361 287 361C205 361 142 335 102 288C63 243 50 185 50 133C50 81 63 33 98 -2C133 -37 181 -50 233 -50C285 -50 334 -39 374 -9C414 20 441 65 459 118C468 145 483 189 500 241C627 214 708 164 760 118C799 83 822 50 835 25C842 13 846 3 849 -4C850 -7 851 -10 851 -11C851 -12 852 -13 852 -13C858 -36 877 -50 899 -50C929 -50 950 -26 950 -1C950 3 949 8 948 12V15C948 16 947 16 947 18C941 37 935 49 923 72C905 105 875 150 827 193C763 251 668 305 531 336C543 372 556 409 568 445C603 441 639 439 678 439C775 439 845 463 891 509C937 555 950 615 950 667C950 719 937 767 902 802C867 837 819 850 767 850C714 850 665 836 625 806C585 776 559 734 542 683C533 657 518 612 500 559C389 585 310 634 255 682C214 718 186 753 169 779C157 796 154 805 147 818C147 819 146 820 146 820C138 839 119 850 100 850C69 850 50 825 50 800Z" />
    </g>
</svg>