<svg xmlns="http://www.w3.org/2000/svg" viewBox="0 0 1000 1386">
    <g transform="translate(0, 1000) scale(1, -1)">
        <path d="M495 126C474 87 438 69 369 69C342 69 297 81 259 101C240 111 226 122 217 131C212 137 210 140 209 141C209 145 211 150 223 160C246 180 307 203 347 218C386 186 446 144 495 126ZM750 393C718 320 683 263 632 207H612C612 252 607 279 592 309C591 312 589 314 588 317C643 341 694 366 750 393ZM497 275C502 267 509 246 509 244C510 239 511 233 511 227C494 234 476 248 459 259C472 264 484 269 497 275ZM418 393 442 360C419 350 396 342 372 333C371 335 369 336 368 338C361 347 361 351 361 352C361 352 361 353 362 354C367 362 382 375 418 393ZM450 515C421 551 392 585 370 612C463 667 559 686 622 686C686 686 732 679 760 670C767 668 772 666 776 664C770 657 760 648 743 637C707 613 648 586 562 556C521 542 484 528 450 515ZM369 830C360 830 352 828 344 823C311 804 284 787 264 770C240 750 215 724 215 683C215 643 238 613 257 591C287 554 321 516 355 473C323 455 295 435 278 408C268 392 261 373 261 353C261 349 262 346 262 342C264 326 269 312 276 298C234 280 192 264 160 237C133 214 109 182 109 139C109 105 128 79 146 61C193 14 291 -31 369 -31C477 -31 556 17 588 88C591 94 594 101 596 108C614 107 634 107 654 107H675L690 122C788 224 838 325 888 475C890 480 890 486 890 491C890 519 870 541 841 541C833 541 826 539 819 536C748 502 683 471 626 445C596 430 563 416 535 403C528 413 520 422 513 432C537 441 565 451 595 461C685 492 752 523 798 553C821 568 841 585 855 602C869 619 881 642 881 668C881 722 833 751 792 765C749 779 690 786 622 786C559 786 475 772 389 734C407 743 419 760 419 780C419 809 394 830 369 830Z" />
    </g>
</svg>