<svg xmlns="http://www.w3.org/2000/svg" viewBox="0 0 1000 1386">
    <g transform="translate(0, 1000) scale(1, -1)">
        <path d="M200 450C200 616 334 750 500 750C666 750 800 616 800 450C800 284 666 150 500 150C334 150 200 284 200 450ZM101 -50C113 -50 124 -46 134 -38L299 104C358 70 427 50 500 50C573 50 642 70 701 104L868 -38C877 -46 889 -50 900 -50C926 -50 950 -27 950 0C950 14 944 28 932 38L782 166C855 238 900 339 900 450C900 671 721 850 500 850C279 850 100 671 100 450C100 339 145 238 218 166L68 38C57 28 51 14 51 0C51 -28 74 -50 101 -50Z" />
    </g>
</svg>