<svg xmlns="http://www.w3.org/2000/svg" viewBox="0 0 1000 1386">
    <g transform="translate(0, 1000) scale(1, -1)">
        <path d="M100 453C122 453 143 469 149 492C159 530 166 556 181 577C194 595 215 613 258 624C273 628 287 630 300 630C350 630 391 603 450 556V320C406 349 357 370 299 370C208 370 135 325 100 275C73 237 60 194 51 156C50 152 49 148 49 144C49 120 70 93 100 93C122 93 143 109 149 132C159 170 166 196 181 217C194 235 215 253 258 264C273 268 287 270 300 270C350 270 391 243 450 196V0C450 -28 472 -50 500 -50C528 -50 550 -28 550 0V120C594 91 643 70 701 70C793 70 864 115 899 165C924 201 937 242 947 278C947 279 948 281 948 282C949 287 950 292 950 297C950 322 930 346 899 346C877 346 859 332 852 310C841 270 832 243 817 222C804 204 784 187 742 176C727 172 714 170 701 170C651 170 609 198 550 244V480C594 451 643 430 701 430C793 430 864 475 899 525C924 561 937 602 947 638C947 639 948 641 948 642C949 647 950 652 950 657C950 682 930 706 899 706C877 706 859 692 852 670C841 630 832 603 817 582C804 564 784 547 742 536C727 532 714 530 701 530C651 530 609 558 550 604V800C550 828 528 850 500 850C472 850 450 828 450 800V680C406 709 357 730 299 730C208 730 135 685 100 635C73 597 60 554 51 516C50 512 49 508 49 504C49 480 70 453 100 453Z" />
    </g>
</svg>