<svg xmlns="http://www.w3.org/2000/svg" viewBox="0 0 1000 1386">
    <g transform="translate(0, 1000) scale(1, -1)">
        <path d="M644 30H356L500 265ZM583 597C583 550 546 513 500 513C454 513 417 550 417 597C417 644 454 681 500 681C546 681 583 644 583 597ZM266 -70H734C759 -70 783 -49 783 -20C783 -11 781 -2 776 6L550 375V420C611 437 659 486 676 547H730C758 547 780 569 780 597C780 625 758 647 730 647H676C659 708 611 757 550 774V827C550 855 528 877 500 877C472 877 450 855 450 827V774C389 757 341 708 324 647H270C242 647 220 625 220 597C220 569 242 547 270 547H324C341 486 389 437 450 420V375L224 6C219 -2 217 -11 217 -20C217 -49 241 -70 266 -70Z" />
    </g>
</svg>