<svg xmlns="http://www.w3.org/2000/svg" viewBox="0 0 1000 1386">
    <g transform="translate(0, 1000) scale(1, -1)">
        <path d="M600 650C600 595 555 550 500 550C445 550 400 595 400 650C400 705 445 750 500 750C555 750 600 705 600 650ZM700 650C700 760 610 850 500 850C390 850 300 760 300 650C300 627 304 604 311 583C230 519 180 415 180 300C180 112 318 -50 500 -50C682 -50 820 112 820 300C820 328 798 350 770 350H545C517 350 495 328 495 300C495 272 517 250 545 250H716C695 133 603 50 500 50C383 50 280 157 280 300C280 383 315 455 368 500C403 469 449 450 500 450C610 450 700 540 700 650Z" />
    </g>
</svg>