<svg xmlns="http://www.w3.org/2000/svg" viewBox="0 0 1000 1386">
    <g transform="translate(0, 1000) scale(1, -1)">
        <path d="M500 797C472 797 450 775 450 747V563C450 535 472 513 500 513C528 513 550 535 550 563V747C550 775 528 797 500 797ZM200 696C200 690 201 683 204 676L274 506C282 487 300 475 319 475C349 475 370 499 370 524C370 530 369 537 366 544L296 714C288 733 270 745 251 745C221 745 200 721 200 696ZM681 475C700 475 718 487 726 506L796 676C799 683 800 690 800 696C800 721 779 745 749 745C730 745 712 733 704 714L634 544C631 537 630 530 630 524C630 499 651 475 681 475ZM255 301H745C722 187 621 101 500 101C379 101 278 187 255 301ZM150 351C150 158 307 1 500 1C693 1 850 158 850 351C850 379 828 401 800 401H200C172 401 150 379 150 351Z" />
    </g>
</svg>