<svg xmlns="http://www.w3.org/2000/svg" viewBox="0 0 1000 1386">
    <g transform="translate(0, 1000) scale(1, -1)">
        <path d="M616 575H633C703 575 756 558 791 531C827 503 850 461 850 400C850 339 827 297 791 269C756 242 703 225 633 225H616C510 229 406 306 320 400C406 494 509 571 616 575ZM50 624C50 616 52 608 56 601C61 596 61 590 67 581C74 568 85 550 98 529C120 493 151 448 189 400C151 352 120 307 98 271C85 250 74 232 67 219C61 211 61 204 56 199V198C52 191 50 183 50 175C50 150 71 125 100 125C118 125 135 135 144 152L145 153C145 154 146 155 147 156C149 159 151 164 154 170C182 222 213 268 255 323C346 226 470 131 612 125H634C718 125 795 146 852 189C916 238 950 311 950 400C950 489 916 562 852 611C795 654 718 675 634 675H612C470 669 346 574 255 477C225 516 202 553 183 583C171 603 160 619 154 630C151 636 149 641 147 644C146 645 145 646 145 647L144 648C135 665 118 675 100 675C70 675 50 649 50 624Z" />
    </g>
</svg>