<svg xmlns="http://www.w3.org/2000/svg" viewBox="0 0 1000 1386">
    <g transform="translate(0, 1000) scale(1, -1)">
        <path d="M50 138C50 124 56 109 68 99C150 31 239 0 350 0C371 0 390 13 397 33L603 610L790 151C748 123 697 100 600 100C572 100 550 78 550 50C550 22 572 0 600 0C699 0 770 24 817 50C849 68 864 81 883 100C885 102 887 104 888 106H889V107C896 116 900 126 900 137C900 143 899 150 896 156L646 769C638 788 620 800 599 800C578 800 560 787 553 767L315 101C243 107 186 131 132 176C123 184 111 188 100 188C74 188 50 165 50 138Z" />
    </g>
</svg>