<svg xmlns="http://www.w3.org/2000/svg" viewBox="0 0 1000 1386">
    <g transform="translate(0, 1000) scale(1, -1)">
        <path d="M545 525C545 527 546 529 547 532C583 625 614 676 644 703C671 728 700 737 744 737C784 737 811 737 831 736C840 735 845 735 849 734C850 727 850 717 850 700C850 647 838 612 820 589C802 565 774 548 730 535C686 523 639 516 601 516C582 516 553 520 545 525ZM445 511C445 508 446 504 447 501C448 494 448 486 449 478C425 466 403 460 380 459H374C343 459 307 466 262 481C222 494 194 512 177 533C160 554 150 580 150 614C150 655 150 684 155 709C229 704 280 685 310 669C378 632 429 601 445 511ZM50 614C50 491 133 416 231 385C280 369 326 359 372 359H384C407 360 429 364 450 371V1C450 -27 472 -49 500 -49C528 -49 550 -27 550 1V419H554C569 417 586 416 603 416C653 416 709 425 757 438C815 454 865 482 900 528C935 574 950 632 950 700V703C950 760 948 797 905 820C885 831 859 835 837 836C813 837 783 837 745 837H744C683 837 626 823 576 777C544 748 516 707 490 654C488 656 487 658 485 660C446 708 397 736 359 757C309 784 230 810 119 810C99 810 81 798 73 780C50 728 50 672 50 619Z" />
    </g>
</svg>