<svg xmlns="http://www.w3.org/2000/svg" viewBox="0 0 1000 1386">
    <g transform="translate(0, 1000) scale(1, -1)">
        <path d="M800 7C800 30 796 45 791 73C782 115 765 170 730 226C688 293 623 358 524 400C671 462 759 580 791 727C796 755 800 770 800 793V800C800 828 778 850 750 850C722 850 700 828 700 800V798C700 796 699 792 699 787C698 778 696 765 693 748C686 715 672 670 645 626C596 548 500 463 300 451V800C300 828 278 850 250 850C222 850 200 828 200 800V0C200 -28 222 -50 250 -50C278 -50 300 -28 300 0V349C500 337 596 252 645 174C672 130 686 85 693 52C696 35 698 22 699 13C699 8 700 4 700 2V0C700 -28 722 -50 750 -50C778 -50 800 -28 800 0Z" />
    </g>
</svg>