<svg xmlns="http://www.w3.org/2000/svg" viewBox="0 0 1000 1386">
    <g transform="translate(0, 1000) scale(1, -1)">
        <path d="M450 750V560H270V750ZM550 560V750H730V560ZM107 170C107 160 110 151 116 142L231 -28C240 -42 256 -50 273 -50C303 -50 323 -26 323 0V90C323 210 406 300 500 300C594 300 677 210 677 90V0C677 -28 699 -50 727 -50C755 -50 777 -28 777 0V90C777 233 686 368 550 395V460H780C808 460 830 482 830 510V800C830 828 808 850 780 850H220C192 850 170 828 170 800V510C170 482 192 460 220 460H450V395C334 372 251 272 229 154L198 198C188 212 173 220 157 220C129 220 107 195 107 170Z" />
    </g>
</svg>