<svg xmlns="http://www.w3.org/2000/svg" viewBox="0 0 1000 1386">
    <g transform="translate(0, 1000) scale(1, -1)">
        <path d="M157 251V61C131 77 120 114 120 153C120 202 137 234 157 251ZM282 269V50H257V269ZM284 369H272C250 369 226 368 201 368C99 368 20 276 20 153C20 113 28 64 56 23C85 -21 134 -50 201 -50H480C528 -50 552 -7 552 39C552 76 542 113 535 140C532 151 528 156 528 164L527 165V166C520 187 501 200 480 200C450 200 429 175 429 150C429 145 430 136 433 133C433 132 433 131 434 129C440 106 451 78 451 50H382V320C382 443 408 553 457 630C501 699 563 743 651 749C652 742 656 730 658 720C662 698 666 678 675 659C678 652 688 637 705 628C730 615 777 583 820 549C840 533 856 518 869 506C869 505 868 505 868 504C840 474 793 427 763 399C746 382 722 369 722 340V0C722 -28 744 -50 772 -50C800 -50 822 -28 822 0V318C825 320 828 323 831 326C846 340 866 359 886 379C915 408 943 433 964 465C972 475 980 486 980 508C980 521 975 530 973 535C965 552 955 562 942 575C896 621 816 680 763 710C754 740 752 773 739 802C734 814 716 850 674 850C415 850 297 622 284 369ZM720 440C753 440 780 467 780 500C780 533 753 560 720 560C687 560 660 533 660 500C660 467 687 440 720 440ZM620 500C620 533 593 560 560 560C527 560 500 533 500 500C500 467 527 440 560 440C593 440 620 467 620 500ZM676 142C676 170 654 192 626 192C598 192 576 170 576 142V0C576 -28 598 -50 626 -50C654 -50 676 -28 676 0Z" />
    </g>
</svg>