<svg xmlns="http://www.w3.org/2000/svg" viewBox="0 0 1000 1386">
    <g transform="translate(0, 1000) scale(1, -1)">
        <path d="M420 540C439 515 469 500 500 500C531 500 561 515 580 540C613 583 662 606 740 606C763 606 785 598 805 574C826 548 850 496 850 398C850 203 695 48 500 48C305 48 150 203 150 398C150 499 174 552 195 578C215 602 238 610 259 610C334 609 390 579 420 540ZM395 800C395 788 400 775 410 765C411 763 413 761 416 757C434 732 450 695 450 650C401 687 334 709 260 710H258C158 710 50 629 50 398C50 148 250 -52 500 -52C750 -52 950 148 950 398C950 625 841 706 740 706C666 706 598 687 550 651C550 720 524 775 498 814C493 822 489 827 484 832C484 833 483 833 483 833C472 844 459 850 444 850C417 850 395 826 395 800Z" />
    </g>
</svg>