<svg xmlns="http://www.w3.org/2000/svg" viewBox="0 0 1000 1386">
    <g transform="translate(0, 1000) scale(1, -1)">
        <path d="M320 225C320 208 329 191 345 182L400 150L345 118C329 109 320 92 320 75C320 46 345 25 370 25C379 25 387 27 395 32L450 63V0C450 -28 472 -50 500 -50C528 -50 550 -28 550 0V63L605 32C613 27 621 25 630 25C655 25 680 46 680 75C680 92 671 109 655 118L600 150L655 182C671 191 680 208 680 225C680 254 655 275 630 275C621 275 613 273 605 268L550 237V300C550 328 528 350 500 350C472 350 450 328 450 300V237L395 268C387 273 379 275 370 275C345 275 320 254 320 225ZM550 800C550 828 528 850 500 850C472 850 450 828 450 800V450C450 422 472 400 500 400C528 400 550 422 550 450Z" />
    </g>
</svg>