<svg xmlns="http://www.w3.org/2000/svg" viewBox="0 0 1000 1386">
    <g transform="translate(0, 1000) scale(1, -1)">
        <path d="M800 200C800 255 755 300 700 300C645 300 600 255 600 200C600 145 645 100 700 100C755 100 800 145 800 200ZM400 600C400 655 355 700 300 700C245 700 200 655 200 600C200 545 245 500 300 500C355 500 400 545 400 600ZM750 700C738 700 725 695 715 685L215 185C205 175 200 162 200 150C200 124 224 100 250 100C262 100 275 105 285 115L785 615C795 625 800 638 800 650C800 676 776 700 750 700Z" />
    </g>
</svg>