<svg xmlns="http://www.w3.org/2000/svg" viewBox="0 0 1000 1386">
    <g transform="translate(0, 1000) scale(1, -1)">
        <path d="M673 566C678 566 684 567 689 569C702 573 715 575 727 575C789 575 850 526 850 451C850 399 817 351 765 334C744 327 730 307 730 286C730 275 733 265 740 256C756 234 763 209 763 184C763 146 745 108 712 84C690 68 665 60 640 60C602 60 564 78 540 111C530 124 515 132 500 132C485 132 469 125 459 111C435 78 397 60 359 60C290 60 236 121 236 184C236 208 243 232 257 253C263 261 270 273 270 287C270 308 256 327 235 334C183 351 150 399 150 451C150 526 211 575 273 575C285 575 298 573 311 569C316 567 322 566 327 566C348 566 367 580 374 601C376 608 378 615 377 622C380 688 434 740 500 740C568 740 623 685 623 617C623 587 648 566 673 566ZM50 451C50 376 88 305 151 264C141 238 136 210 136 183C136 114 168 47 228 3C268 -26 314 -40 359 -40C409 -40 459 -23 500 10C541 -23 590 -40 640 -40C685 -40 731 -26 771 3C832 47 864 116 864 185C864 212 859 238 849 264C912 305 950 375 950 450C950 586 839 674 727 674H716C691 769 603 840 500 840C397 840 309 769 284 674H273C161 674 50 586 50 451Z" />
    </g>
</svg>