<svg xmlns="http://www.w3.org/2000/svg" viewBox="0 0 1000 1386">
    <g transform="translate(0, 1000) scale(1, -1)">
        <path d="M750 783C733 783 716 774 707 758L657 671C652 663 650 655 650 646C650 621 671 596 700 596C717 596 734 605 743 621L793 708C798 716 800 724 800 733C800 758 779 783 750 783ZM200 733C200 724 202 716 207 708L257 621C266 605 283 596 300 596C329 596 350 621 350 646C350 655 348 663 343 671L293 758C284 774 267 783 250 783C221 783 200 758 200 733ZM709 358C719 332 725 304 725 275C725 151 624 50 500 50C439 50 384 74 343 114ZM500 500C559 500 613 477 653 440L289 198C280 222 275 248 275 275C275 399 376 500 500 500ZM169 9C178 9 188 11 197 17L258 58C317 -8 404 -50 500 -50C679 -50 825 96 825 275C825 325 814 372 794 414L863 460C877 469 885 486 885 502C885 531 861 552 835 552C825 552 816 550 807 544L737 497C678 560 594 600 500 600C321 600 175 454 175 275C175 227 186 182 204 141L142 100C128 91 120 75 120 59C120 30 143 9 169 9ZM500 850C472 850 450 828 450 800V700C450 672 472 650 500 650C528 650 550 672 550 700V800C550 828 528 850 500 850Z" />
    </g>
</svg>