<svg xmlns="http://www.w3.org/2000/svg" viewBox="0 0 1000 1386">
    <g transform="translate(0, 1000) scale(1, -1)">
        <path d="M376 851C372 851 368 850 364 849C326 840 283 827 245 800C195 765 150 692 150 601C150 508 205 439 256 375C259 372 259 371 261 368C316 300 350 254 350 198C350 185 348 172 344 158C333 116 316 96 298 83C277 68 250 59 210 48C188 41 174 23 174 1C174 -30 198 -50 223 -50C228 -50 233 -49 238 -48C239 -48 241 -47 242 -47C278 -37 319 -24 355 1C405 36 450 107 450 199C450 292 394 362 344 425C343 428 340 429 339 432C284 501 250 546 250 601C250 614 252 627 256 642C267 685 285 706 303 719C324 734 350 741 388 751C411 757 427 778 427 800C427 830 400 851 376 851ZM776 851C772 851 768 850 764 849C726 840 683 827 645 800C595 765 550 692 550 601C550 508 605 439 656 375C659 372 659 371 661 368C716 300 750 254 750 198C750 185 748 172 744 158C733 116 716 96 698 83C677 68 650 59 610 48C588 41 574 23 574 1C574 -30 598 -50 623 -50C628 -50 633 -49 638 -48C639 -48 641 -47 642 -47C678 -37 719 -24 755 1C805 36 850 107 850 199C850 292 794 362 744 425C743 428 740 429 739 432C684 501 650 546 650 601C650 614 652 627 656 642C667 685 685 706 703 719C724 734 750 741 788 751C811 757 827 778 827 800C827 830 800 851 776 851Z" />
    </g>
</svg>