<svg xmlns="http://www.w3.org/2000/svg" viewBox="0 0 1000 1386">
    <g transform="translate(0, 1000) scale(1, -1)">
        <path d="M262 -6C372 -6 462 84 462 194C462 304 372 394 262 394C152 394 62 304 62 194C62 84 152 -6 262 -6ZM262 94C207 94 162 139 162 194C162 249 207 294 262 294C317 294 362 249 362 194C362 139 317 94 262 94ZM738 -6C848 -6 938 84 938 194C938 304 848 394 738 394C628 394 538 304 538 194C538 84 628 -6 738 -6ZM738 94C683 94 638 139 638 194C638 249 683 294 738 294C793 294 838 249 838 194C838 139 793 94 738 94ZM500 406C610 406 700 496 700 606C700 716 610 806 500 806C390 806 300 716 300 606C300 496 390 406 500 406ZM500 506C445 506 400 551 400 606C400 661 445 706 500 706C555 706 600 661 600 606C600 551 555 506 500 506Z" />
    </g>
</svg>