<svg xmlns="http://www.w3.org/2000/svg" viewBox="0 0 1000 1386">
    <g transform="translate(0, 1000) scale(1, -1)">
        <path d="M183 520C183 496 202 470 232 470C253 470 274 484 281 505V507C286 518 288 526 295 542C305 565 319 595 339 625C380 688 434 736 500 736C643 736 716 624 716 519C716 306 504 162 340 90C311 77 296 71 274 64C272 63 272 62 271 62H270C249 55 235 34 235 13C235 -17 260 -35 285 -35C290 -35 295 -35 300 -33H301L302 -32C309 -32 314 -29 323 -25C337 -20 356 -12 380 -2C427 19 491 51 554 94C679 179 816 319 816 519C816 666 711 836 500 836C381 836 301 751 255 680C231 643 214 607 203 580C195 562 193 551 186 538V535C183 532 183 524 183 520ZM516 576C495 576 474 562 467 541C439 452 397 390 326 345C311 335 303 319 303 303C303 274 329 252 354 252C363 252 372 255 380 260C475 321 528 405 562 511C564 516 564 521 564 526C564 551 546 576 516 576Z" />
    </g>
</svg>