<svg xmlns="http://www.w3.org/2000/svg" viewBox="0 0 1000 1386">
    <g transform="translate(0, 1000) scale(1, -1)">
        <path d="M645 50C686 50 720 84 720 125C720 166 686 200 645 200C604 200 570 166 570 125C570 84 604 50 645 50ZM490 520C435 520 390 565 390 620C390 675 435 720 490 720C545 720 590 675 590 620C590 565 545 520 490 520ZM790 -20C810 -20 828 -8 836 12C852 54 860 94 860 131C860 222 815 294 748 332C719 349 685 358 651 358C632 358 613 355 594 349C541 333 494 295 462 235L461 234C435 185 415 146 390 118C367 92 344 80 315 80C284 80 269 92 260 107C248 127 241 159 241 204C241 248 243 386 357 471C392 439 439 420 490 420C600 420 690 510 690 620C690 730 600 820 490 820C380 820 290 730 290 620C290 597 294 575 301 554C143 440 141 256 141 206V203C141 152 149 98 175 55C204 8 251 -20 315 -20C444 -20 500 93 546 181C566 221 596 246 623 253C632 256 641 257 650 257C667 257 683 252 699 244C731 226 760 188 760 130C760 106 755 79 743 48C741 42 740 36 740 30C740 5 759 -20 790 -20Z" />
    </g>
</svg>