<svg xmlns="http://www.w3.org/2000/svg" viewBox="0 0 1000 1386">
    <g transform="translate(0, 1000) scale(1, -1)">
        <path d="M356 59 500 294 644 59ZM574 591C571 590 569 590 566 589C577 624 592 656 608 673C628 693 669 709 714 719C717 720 719 720 722 721C711 685 697 653 680 636C660 616 619 601 574 591ZM288 719C333 709 374 694 394 674C411 657 425 625 436 589C433 590 431 590 428 591C383 601 342 617 322 637C306 654 291 686 280 721C283 720 285 720 288 719ZM215 830C187 830 166 808 166 780V771C166 770 167 768 167 766C173 743 175 725 183 697C195 658 216 603 251 567C293 524 359 503 406 493C422 489 438 487 451 485V406L224 35C219 27 217 18 217 9C217 -20 241 -41 266 -41H734C759 -41 783 -20 783 9C783 18 781 27 776 35L551 402V485C564 487 579 490 595 493C642 503 709 523 751 566C787 602 807 657 819 696C827 725 829 742 835 766C835 768 836 770 836 771V780C836 808 815 830 787 830H782C781 830 778 829 776 829C771 829 764 828 756 827C740 825 717 822 692 817C645 807 579 786 537 743C523 729 511 712 501 694C491 712 479 729 465 744C423 787 356 807 309 817C284 822 261 825 245 827C237 828 231 829 226 829C224 829 221 830 220 830Z" />
    </g>
</svg>