<svg xmlns="http://www.w3.org/2000/svg" viewBox="0 0 1000 1386">
    <g transform="translate(0, 1000) scale(1, -1)">
        <path d="M701 797C684 797 666 787 657 771L500 500L343 771C334 787 316 797 299 797C270 797 250 771 250 746C250 737 252 729 257 721L413 450H100C72 450 50 428 50 400C50 372 72 350 100 350H413L257 79C252 71 250 63 250 54C250 29 270 3 299 3C316 3 334 13 343 29L500 300L657 29C666 13 684 3 701 3C730 3 750 29 750 54C750 63 748 71 743 79L587 350H900C928 350 950 372 950 400C950 428 928 450 900 450H587L743 721C748 729 750 737 750 746C750 771 730 797 701 797Z" />
    </g>
</svg>