<svg xmlns="http://www.w3.org/2000/svg" viewBox="0 0 1000 1386">
    <g transform="translate(0, 1000) scale(1, -1)">
        <path d="M950 287C950 291 949 296 948 300C916 429 895 535 774 583C745 594 716 600 688 600C582 600 487 525 452 415C428 341 370 300 311 300C295 300 279 303 263 309C182 341 171 434 148 525C142 548 122 563 100 563C69 563 50 538 50 513C50 509 51 504 52 500C84 371 105 265 226 217C255 206 284 200 312 200C418 200 513 275 548 385C572 459 630 500 689 500C705 500 721 497 737 491C818 459 829 366 852 275C858 252 878 237 900 237C931 237 950 262 950 287Z" />
    </g>
</svg>