<svg xmlns="http://www.w3.org/2000/svg" viewBox="0 0 1000 1386">
    <g transform="translate(0, 1000) scale(1, -1)">
        <path d="M356 60 500 295 644 60ZM266 -40H734C759 -40 783 -19 783 10C783 19 781 28 776 36L543 417C534 432 517 441 500 441C483 441 466 432 457 417L224 36C219 28 217 19 217 10C217 -19 241 -40 266 -40ZM286 735H714C691 638 604 565 500 565C396 565 309 638 286 735ZM180 785C180 608 323 465 500 465C677 465 820 608 820 785C820 813 798 835 770 835H230C202 835 180 813 180 785Z" />
    </g>
</svg>