<svg xmlns="http://www.w3.org/2000/svg" viewBox="0 0 1000 1386">
    <g transform="translate(0, 1000) scale(1, -1)">
        <path d="M50 350C50 341 52 333 57 325L257 -25C266 -41 282 -50 299 -50C329 -50 350 -27 350 0V290C350 447 382 550 428 613C472 674 532 700 600 700C668 700 728 674 772 613C818 550 850 447 850 290V0C850 -28 872 -50 900 -50C928 -50 950 -28 950 0V290C950 459 916 586 853 672C789 760 698 800 600 800C502 800 411 760 347 672C284 586 250 459 250 290V188L143 375C134 391 117 400 100 400C71 400 50 375 50 350Z" />
    </g>
</svg>