<svg xmlns="http://www.w3.org/2000/svg" viewBox="0 0 1000 1386">
    <g transform="translate(0, 1000) scale(1, -1)">
        <path d="M500 225C369 225 230 296 169 400C230 504 369 575 500 575C631 575 770 504 831 400C770 296 631 225 500 225ZM83 349C165 210 339 125 500 125C661 125 835 210 917 349C926 365 930 382 930 400C930 418 926 435 917 451C835 590 661 675 500 675C339 675 165 590 83 451C74 435 70 418 70 400C70 382 74 365 83 349ZM600 400C600 455 555 500 500 500C445 500 400 455 400 400C400 345 445 300 500 300C555 300 600 345 600 400Z" />
    </g>
</svg>