<svg xmlns="http://www.w3.org/2000/svg" viewBox="0 0 1000 1386">
    <g transform="translate(0, 1000) scale(1, -1)">
        <path d="M500 200C541 200 575 166 575 125C575 84 541 50 500 50C459 50 425 84 425 125C425 166 459 200 500 200ZM200 525C200 639 322 750 500 750C678 750 800 639 800 525C800 411 678 300 500 300C322 300 200 411 200 525ZM645 222C789 268 900 381 900 525C900 715 709 850 500 850C291 850 100 715 100 525C100 381 211 268 355 222C336 194 325 161 325 125C325 28 403 -50 500 -50C597 -50 675 28 675 125C675 161 664 194 645 222Z" />
    </g>
</svg>