<svg xmlns="http://www.w3.org/2000/svg" viewBox="0 0 1000 1386">
    <g transform="translate(0, 1000) scale(1, -1)">
        <path d="M800 350C800 184 666 50 500 50C334 50 200 184 200 350C200 516 334 650 500 650C666 650 800 516 800 350ZM50 800C50 796 51 791 52 787C65 737 86 695 121 661C143 640 168 624 197 611C137 541 100 450 100 350C100 129 279 -50 500 -50C721 -50 900 129 900 350C900 450 863 541 803 611C832 624 857 640 879 661C914 695 935 737 948 787C949 791 950 796 950 800C950 825 931 850 900 850C878 850 858 836 852 813C842 776 828 751 809 733C790 715 762 699 719 686H718C655 727 580 750 500 750C420 750 345 727 282 686H281C238 699 210 715 191 733C172 751 158 776 148 813C142 836 122 850 100 850C69 850 50 825 50 800Z" />
    </g>
</svg>