<svg xmlns="http://www.w3.org/2000/svg" viewBox="0 0 1000 1386">
    <g transform="translate(0, 1000) scale(1, -1)">
        <path d="M200 400C200 234 334 100 500 100C666 100 800 234 800 400C800 566 666 700 500 700C334 700 200 566 200 400ZM500 600C610 600 700 510 700 400C700 290 610 200 500 200C390 200 300 290 300 400C300 510 390 600 500 600ZM500 750C693 750 850 593 850 400V0C850 -28 872 -50 900 -50C928 -50 950 -28 950 0V400C950 649 749 850 500 850C251 850 50 649 50 400V0C50 -28 72 -50 100 -50C128 -50 150 -28 150 0V400C150 593 307 750 500 750Z" />
    </g>
</svg>