<svg xmlns="http://www.w3.org/2000/svg" viewBox="0 0 1000 1386">
    <g transform="translate(0, 1000) scale(1, -1)">
        <path d="M500 750C583 750 650 683 650 600C650 517 583 450 500 450C417 450 350 517 350 600C350 683 417 750 500 750ZM750 600C750 738 638 850 500 850C362 850 250 738 250 600C250 479 336 378 450 355V275H325C297 275 275 253 275 225C275 197 297 175 325 175H450V50C450 22 472 0 500 0C528 0 550 22 550 50V175H675C703 175 725 197 725 225C725 253 703 275 675 275H550V355C664 378 750 479 750 600Z" />
    </g>
</svg>