<svg xmlns="http://www.w3.org/2000/svg" viewBox="0 0 1000 1386">
    <g transform="translate(0, 1000) scale(1, -1)">
        <path d="M600 600C600 545 555 500 500 500C445 500 400 545 400 600C400 655 445 700 500 700C555 700 600 655 600 600ZM500 50C500 55 499 59 498 64V65L497 66V68C496 70 495 74 494 79C491 88 488 102 483 119C462 200 433 321 417 418C442 406 470 400 500 400C610 400 700 490 700 600C700 710 610 800 500 800C390 800 300 710 300 600C300 487 326 344 351 233C364 177 376 128 386 93C393 69 395 57 401 40C401 39 402 38 402 37V36C409 15 429 0 450 0C480 0 500 26 500 50Z" />
    </g>
</svg>