<svg xmlns="http://www.w3.org/2000/svg" viewBox="0 0 1000 1386">
    <g transform="translate(0, 1000) scale(1, -1)">
        <path d="M208 259C208 342 275 409 358 409C441 409 508 342 508 259C508 176 441 109 358 109C275 109 208 176 208 259ZM747 698H558C530 698 508 676 508 648C508 620 530 598 558 598H626L496 467C456 493 409 509 358 509C220 509 108 397 108 259C108 121 220 9 358 9C496 9 608 121 608 259C608 310 593 357 567 397L697 527V459C697 431 719 409 747 409C775 409 797 431 797 459V648C797 675 774 698 747 698Z" />
    </g>
</svg>