<svg xmlns="http://www.w3.org/2000/svg" viewBox="0 0 1000 1386">
    <g transform="translate(0, 1000) scale(1, -1)">
        <path d="M250 475C250 613 362 725 500 725C638 725 750 613 750 475C750 337 638 225 500 225C362 225 250 337 250 475ZM745 225C810 289 850 377 850 475C850 668 693 825 500 825C307 825 150 668 150 475C150 377 190 289 255 225H140C112 225 90 203 90 175V25C90 -3 112 -25 140 -25C168 -25 190 -3 190 25V125H810V25C810 -3 832 -25 860 -25C888 -25 910 -3 910 25V175C910 203 888 225 860 225Z" />
    </g>
</svg>