<svg xmlns="http://www.w3.org/2000/svg" viewBox="0 0 1000 1386">
    <g transform="translate(0, 1000) scale(1, -1)">
        <path d="M346 750H738C719 630 632 550 542 550C452 550 365 630 346 750ZM242 800C242 616 368 450 542 450C716 450 842 616 842 800C842 828 820 850 792 850H292C264 850 242 828 242 800ZM159 170C159 160 162 151 168 142L283 -28C292 -42 308 -50 325 -50C355 -50 375 -26 375 0V90C375 210 458 300 552 300C646 300 729 210 729 90V0C729 -28 751 -50 779 -50C807 -50 829 -28 829 0V90C829 250 715 400 552 400C411 400 306 288 281 154L250 198C240 212 225 220 209 220C181 220 159 195 159 170Z" />
    </g>
</svg>