<svg xmlns="http://www.w3.org/2000/svg" viewBox="0 0 1000 1386">
    <g transform="translate(0, 1000) scale(1, -1)">
        <path d="M850 400C850 207 693 50 500 50C307 50 150 207 150 400C150 593 307 750 500 750C693 750 850 593 850 400ZM950 400C950 649 749 850 500 850C251 850 50 649 50 400C50 151 251 -50 500 -50C749 -50 950 151 950 400ZM525 475C525 463 530 450 540 440L579 400L540 360C530 350 525 337 525 325C525 299 549 275 575 275C587 275 600 280 610 290L650 329L690 290C700 280 713 275 725 275C751 275 775 299 775 325C775 337 770 350 760 360L721 400L760 440C770 450 775 463 775 475C775 501 751 525 725 525C713 525 700 520 690 510L650 471L610 510C600 520 587 525 575 525C549 525 525 501 525 475ZM225 475C225 463 230 450 240 440L279 400L240 360C230 350 225 337 225 325C225 299 249 275 275 275C287 275 300 280 310 290L350 329L390 290C400 280 413 275 425 275C451 275 475 299 475 325C475 337 470 350 460 360L421 400L460 440C470 450 475 463 475 475C475 501 451 525 425 525C413 525 400 520 390 510L350 471L310 510C300 520 287 525 275 525C249 525 225 501 225 475Z" />
    </g>
</svg>