<svg xmlns="http://www.w3.org/2000/svg" viewBox="0 0 1000 1386">
    <g transform="translate(0, 1000) scale(1, -1)">
        <path d="M950 352C950 358 948 365 946 371L885 523C877 542 858 555 838 555C818 555 800 542 792 523L748 413L670 618C662 637 643 650 623 650H621C600 649 581 635 575 615L500 370L425 615C419 635 400 649 379 650H377C357 650 338 637 330 618L252 413L208 523C200 542 182 555 162 555C142 555 123 542 115 523L54 371C52 365 50 358 50 352C50 327 70 302 100 302C120 302 138 314 146 334L162 371L207 257C215 238 233 226 254 226C275 226 294 239 301 258L372 446L452 185C458 164 478 150 500 150C522 150 542 164 548 185L628 446L699 258C706 239 725 226 746 226C767 226 785 238 793 257L838 371L854 334C862 314 880 302 900 302C930 302 950 327 950 352Z" />
    </g>
</svg>