<svg xmlns="http://www.w3.org/2000/svg" viewBox="0 0 1000 1386">
    <g transform="translate(0, 1000) scale(1, -1)">
        <path d="M854 679C854 638 820 604 779 604C738 604 704 638 704 679C704 720 738 754 779 754C820 754 854 720 854 679ZM775 325C775 173 652 50 500 50C348 50 225 173 225 325C225 477 348 600 500 600C652 600 775 477 775 325ZM221 604C180 604 146 638 146 679C146 720 180 754 221 754C262 754 296 720 296 679C296 638 262 604 221 604ZM221 854C124 854 46 776 46 679C46 599 100 531 174 510C143 455 125 392 125 325C125 118 293 -50 500 -50C707 -50 875 118 875 325C875 392 857 455 826 510C900 531 954 599 954 679C954 776 876 854 779 854C684 854 607 779 604 685C571 695 536 700 500 700C464 700 429 695 396 685C393 779 316 854 221 854ZM500 125C541 125 575 159 575 200C575 241 541 275 500 275C459 275 425 241 425 200C425 159 459 125 500 125Z" />
    </g>
</svg>