<svg xmlns="http://www.w3.org/2000/svg" viewBox="0 0 1000 1386">
    <g transform="translate(0, 1000) scale(1, -1)">
        <path d="M174 785C159 776 150 759 150 742V737C152 718 165 701 184 695C304 657 400 581 400 400C400 219 304 143 184 105C165 99 152 82 150 63V58C150 41 159 24 174 15C241 -26 320 -50 404 -50C651 -50 850 152 850 400C850 648 651 850 404 850C320 850 241 826 174 785ZM500 400C500 574 427 677 325 741C351 747 377 750 404 750C594 750 750 594 750 400C750 206 594 50 404 50C377 50 351 53 325 59C427 123 500 226 500 400Z" />
    </g>
</svg>