<svg xmlns="http://www.w3.org/2000/svg" viewBox="0 0 1000 1386">
    <g transform="translate(0, 1000) scale(1, -1)">
        <path d="M750 575C709 575 675 609 675 650C675 691 709 725 750 725C791 725 825 691 825 650C825 609 791 575 750 575ZM250 575C209 575 175 609 175 650C175 691 209 725 250 725C291 725 325 691 325 650C325 609 291 575 250 575ZM300 482C372 504 425 571 425 650C425 747 347 825 250 825C153 825 75 747 75 650C75 571 128 504 200 482V295C200 196 236 112 285 54C332 -1 406 -50 500 -50C594 -50 668 -1 715 54C764 112 800 196 800 295V482C872 504 925 571 925 650C925 747 847 825 750 825C653 825 575 747 575 650C575 571 628 504 700 482V295C700 222 674 161 639 119C608 81 562 50 500 50C475 50 450 55 426 67C354 103 300 187 300 295Z" />
    </g>
</svg>