<svg xmlns="http://www.w3.org/2000/svg" viewBox="0 0 1000 1386">
    <g transform="translate(0, 1000) scale(1, -1)">
        <path d="M340 -25C357 -25 373 -17 382 -2L472 138C477 146 480 156 480 165C480 190 459 215 430 215C414 215 398 207 388 192L387 191C382 239 368 280 345 311C313 354 268 375 220 375C172 375 127 354 95 311C65 270 50 212 50 141V25C50 -3 72 -25 100 -25C128 -25 150 -3 150 25V141C150 200 163 234 176 252C188 268 202 275 220 275C238 275 252 268 264 252C277 234 290 200 290 141V25C290 -1 310 -25 340 -25ZM340 425C357 425 373 433 382 448L472 588C477 596 480 606 480 615C480 640 459 665 430 665C414 665 398 657 388 642L387 641C382 689 368 730 345 761C313 804 268 825 220 825C172 825 127 804 95 761C65 720 50 662 50 591V475C50 447 72 425 100 425C128 425 150 447 150 475V591C150 650 163 684 176 702C188 718 202 725 220 725C238 725 252 718 264 702C277 684 290 650 290 591V475C290 449 310 425 340 425ZM520 165C520 156 523 146 528 138L618 -2C627 -17 643 -25 660 -25C690 -25 710 -1 710 25V141C710 200 723 234 736 252C748 268 762 275 780 275C798 275 812 268 824 252C837 234 850 200 850 141V25C850 -3 872 -25 900 -25C928 -25 950 -3 950 25V141C950 212 935 270 905 311C873 354 828 375 780 375C732 375 687 354 655 311C632 280 618 239 613 191L612 192C602 207 586 215 570 215C541 215 520 190 520 165ZM520 615C520 606 523 596 528 588L618 448C627 433 643 425 660 425C690 425 710 449 710 475V591C710 650 723 684 736 702C748 718 762 725 780 725C798 725 812 718 824 702C837 684 850 650 850 591V475C850 447 872 425 900 425C928 425 950 447 950 475V591C950 662 935 720 905 761C873 804 828 825 780 825C732 825 687 804 655 761C632 730 618 689 613 641L612 642C602 657 586 665 570 665C541 665 520 640 520 615Z" />
    </g>
</svg>