<svg xmlns="http://www.w3.org/2000/svg" viewBox="0 0 1000 1386">
    <g transform="translate(0, 1000) scale(1, -1)">
        <path d="M50 400C50 372 72 350 100 350H350C378 350 400 372 400 400C400 428 378 450 350 450H100C72 450 50 428 50 400ZM500 300C472 300 450 278 450 250V0C450 -28 472 -50 500 -50C528 -50 550 -28 550 0V250C550 278 528 300 500 300ZM500 850C472 850 450 828 450 800V550C450 522 472 500 500 500C528 500 550 522 550 550V800C550 828 528 850 500 850ZM600 400C600 372 622 350 650 350H900C928 350 950 372 950 400C950 428 928 450 900 450H650C622 450 600 428 600 400Z" />
    </g>
</svg>