<svg xmlns="http://www.w3.org/2000/svg" viewBox="0 0 1000 1386">
    <g transform="translate(0, 1000) scale(1, -1)">
        <path d="M298 697C298 691 299 684 302 677L340 585C348 566 366 554 385 554C415 554 436 578 436 603C436 609 435 616 432 623L394 715C386 734 368 746 349 746C319 746 298 722 298 697ZM785 746C766 746 748 734 740 715L702 623C699 616 698 609 698 603C698 578 719 554 749 554C768 554 786 566 794 585L832 677C835 684 836 691 836 697C836 722 815 746 785 746ZM567 800C539 800 517 778 517 750V650C517 622 539 600 567 600C595 600 617 622 617 650V750C617 778 595 800 567 800ZM213 0C432 0 574 39 661 123C749 208 767 326 767 450C767 478 745 500 717 500C689 500 667 478 667 450C667 331 649 250 592 195C549 153 476 121 353 107C386 141 411 173 429 209C463 277 467 350 467 450C467 478 445 500 417 500C389 500 367 478 367 450C367 350 361 298 339 253C316 207 273 164 181 89C169 80 163 65 163 50C163 20 187 0 213 0Z" />
    </g>
</svg>