<svg xmlns="http://www.w3.org/2000/svg" viewBox="0 0 1000 1386">
    <g transform="translate(0, 1000) scale(1, -1)">
        <path d="M400 500H600V300H400ZM300 0C300 -28 322 -50 350 -50C378 -50 400 -28 400 0V200H600V0C600 -28 622 -50 650 -50C678 -50 700 -28 700 0V200H902C930 200 952 222 952 250C952 278 930 300 902 300H700V500H902C930 500 952 522 952 550C952 578 930 600 902 600H700V800C700 828 678 850 650 850C622 850 600 828 600 800V600H400V800C400 828 378 850 350 850C322 850 300 828 300 800V600H102C74 600 52 578 52 550C52 522 74 500 102 500H300V300H102C74 300 52 278 52 250C52 222 74 200 102 200H300Z" />
    </g>
</svg>