<svg xmlns="http://www.w3.org/2000/svg" viewBox="0 0 1000 1386">
    <g transform="translate(0, 1000) scale(1, -1)">
        <path d="M925 632C925 642 922 652 916 661C876 717 844 748 785 783C748 805 724 815 686 827C637 842 597 850 539 850C478 850 429 839 380 822C282 787 205 723 151 641C111 578 75 497 75 397C75 350 78 316 89 274C122 148 197 55 300 -2C351 -29 410 -50 486 -50C504 -50 519 -48 540 -45C628 -30 694 7 745 61C798 116 843 194 843 300C843 397 810 465 766 520C719 575 648 629 547 629C504 629 466 621 434 606C359 570 295 503 289 397C289 390 288 385 288 379C288 369 289 360 291 348C300 297 320 257 351 226C381 196 424 169 484 169C518 169 546 180 569 195C602 218 628 252 633 304V314C633 383 589 431 534 447C529 448 525 449 520 449C495 449 469 429 469 399C469 378 484 358 505 351C523 345 533 337 533 316V310V306C533 304 533 304 531 298C531 298 526 291 526 290C526 289 524 288 522 286C520 284 514 275 509 275C508 275 506 274 502 273C495 270 488 269 481 269C457 269 434 284 422 296C403 315 389 343 389 379C389 405 395 431 405 449C429 494 476 529 545 529C593 529 628 510 657 487C706 448 743 387 743 300C743 226 709 170 672 130C632 87 572 50 491 50C404 50 342 82 294 123C231 177 180 258 176 371C176 380 175 388 175 395C175 411 177 425 180 445C189 499 207 547 234 586C276 650 337 699 414 728C451 742 488 750 535 750C614 750 682 728 733 697C780 669 802 648 834 603C844 589 859 582 875 582C904 582 925 606 925 632Z" />
    </g>
</svg>