<svg xmlns="http://www.w3.org/2000/svg" viewBox="0 0 1000 1386">
    <g transform="translate(0, 1000) scale(1, -1)">
        <path d="M415 786C415 782 414 778 414 771C414 701 411 633 410 550C410 520 409 490 409 462C409 434 410 407 410 384C410 361 410 341 411 327C411 320 413 312 414 306C414 303 416 298 418 292C423 277 439 260 465 260H470C531 266 572 269 606 269C667 269 735 257 770 232C786 220 795 206 795 185C795 152 787 126 765 105C741 83 691 60 585 60C391 60 285 63 227 65C219 65 211 66 205 66V790C205 818 183 840 155 840C127 840 105 818 105 790V20C105 -3 120 -24 143 -29H147C148 -29 149 -30 150 -30C173 -30 183 -34 222 -35C282 -38 391 -40 585 -40C703 -40 783 -15 833 31C885 78 895 138 895 185C895 293 800 343 710 359C672 365 640 368 602 368C575 368 546 367 510 364V385C510 407 509 433 509 461C509 489 510 519 510 549C511 632 514 698 514 768C514 775 515 779 515 783V789V791C515 818 493 839 466 840H464C437 840 416 818 415 791Z" />
    </g>
</svg>