<svg xmlns="http://www.w3.org/2000/svg" viewBox="0 0 1000 1386">
    <g transform="translate(0, 1000) scale(1, -1)">
        <path d="M754 495C761 463 765 431 765 400C765 369 761 337 754 305C715 317 690 354 690 400C690 446 715 483 754 495ZM324 400C470 467 576 553 666 679C688 649 705 619 720 589C688 578 661 560 640 536C606 498 590 448 590 400C590 352 606 302 640 264C661 240 688 222 720 211C705 181 688 151 666 121C576 247 470 333 324 400ZM685 850C668 850 651 842 642 826C522 625 406 527 170 448C169 448 168 447 167 447C150 440 135 424 135 400C135 376 150 360 167 353C168 353 169 352 170 352C406 273 522 175 642 -26C651 -42 668 -50 685 -50C715 -50 735 -26 735 0C735 9 733 18 728 26C727 28 725 30 724 32C817 146 865 272 865 400C865 528 817 654 724 768C725 770 727 772 728 774C733 782 735 791 735 800C735 826 715 850 685 850Z" />
    </g>
</svg>