<svg xmlns="http://www.w3.org/2000/svg" viewBox="0 0 1000 1386">
    <g transform="translate(0, 1000) scale(1, -1)">
        <path d="M400 300C424 300 442 273 453 256L459 247C468 233 483 225 500 225C517 225 532 233 541 247L547 256C558 273 576 300 600 300C628 300 650 278 650 250C650 240 644 222 627 196C598 152 539 97 500 64C461 97 403 152 373 196C356 222 350 240 350 250C350 278 372 300 400 300ZM530 -40 531 -39C534 -37 535 -36 539 -33C596 15 666 73 710 141C730 172 750 210 750 250C750 333 683 400 600 400C554 400 522 379 500 357C478 379 446 400 400 400C317 400 250 333 250 250C250 210 270 172 290 141C334 74 405 14 461 -33C465 -36 466 -37 469 -39L470 -40C479 -46 490 -50 500 -50C510 -50 521 -46 530 -40ZM400 750C424 750 442 723 453 706L459 697C468 683 483 675 500 675C517 675 532 683 541 697L547 706C558 723 576 750 600 750C628 750 650 728 650 700C650 690 644 672 627 646C598 602 539 547 500 514C461 547 403 602 373 646C356 672 350 690 350 700C350 728 372 750 400 750ZM530 410 531 411C534 413 535 414 539 417C596 465 666 523 710 591C730 622 750 660 750 700C750 783 683 850 600 850C554 850 522 829 500 807C478 829 446 850 400 850C317 850 250 783 250 700C250 660 270 622 290 591C334 524 405 464 461 417C465 414 466 413 469 411L470 410C479 404 490 400 500 400C510 400 521 404 530 410Z" />
    </g>
</svg>