<svg xmlns="http://www.w3.org/2000/svg" viewBox="0 0 1000 1386">
    <g transform="translate(0, 1000) scale(1, -1)">
        <path d="M724 500C779 500 824 455 824 400C824 345 779 300 724 300C669 300 624 345 624 400C624 455 669 500 724 500ZM74 535C74 524 78 512 85 503C160 410 269 335 383 283C497 231 619 200 721 200H724C834 200 924 290 924 400C924 510 834 600 724 600C614 600 524 510 524 400C524 376 528 352 536 331C499 342 462 357 425 374C321 422 225 489 163 566C154 578 139 584 125 584C97 584 74 561 74 535Z" />
    </g>
</svg>