<svg xmlns="http://www.w3.org/2000/svg" viewBox="0 0 1000 1386">
    <g transform="translate(0, 1000) scale(1, -1)">
        <path d="M200 250C200 238 205 225 215 215L465 -35C475 -45 488 -50 500 -50C512 -50 525 -45 535 -35L785 215C795 225 800 238 800 250C800 276 776 300 750 300C738 300 725 295 715 285L500 71L285 285C275 295 262 300 250 300C224 300 200 276 200 250ZM200 525C200 513 205 500 215 490L465 240C475 230 488 225 500 225C512 225 525 230 535 240L785 490C795 500 800 513 800 525C800 551 776 575 750 575C738 575 725 570 715 560L500 346L285 560C275 570 262 575 250 575C224 575 200 551 200 525ZM200 800C200 788 205 775 215 765L465 515C475 505 488 500 500 500C512 500 525 505 535 515L785 765C795 775 800 788 800 800C800 826 776 850 750 850C738 850 725 845 715 835L500 621L285 835C275 845 262 850 250 850C224 850 200 826 200 800Z" />
    </g>
</svg>