<svg xmlns="http://www.w3.org/2000/svg" viewBox="0 0 1000 1386">
    <g transform="translate(0, 1000) scale(1, -1)">
        <path d="M741 764C724 764 708 755 699 739L651 652C647 644 645 636 645 627C645 601 664 576 694 576C711 576 728 585 737 601L785 687C789 695 791 703 791 712C791 738 771 764 741 764ZM210 712C210 703 212 695 216 687L264 601C273 585 290 576 307 576C337 576 356 601 356 627C356 636 354 644 350 652L302 739C293 755 277 764 260 764C230 764 210 738 210 712ZM500 830C472 830 450 808 450 780V680C450 652 472 630 500 630C528 630 550 652 550 680V780C550 808 528 830 500 830ZM100 214C100 205 103 196 108 188L229 -6C239 -21 255 -30 272 -30C301 -30 321 -5 321 20V136C321 217 343 290 378 342C413 394 457 420 500 420C543 420 588 394 623 342C658 290 680 217 680 136V20C680 -8 702 -30 730 -30C758 -30 780 -8 780 20V136C780 235 752 328 705 398C658 468 587 520 500 520C413 520 343 468 296 398C257 341 232 268 224 190L192 241C182 256 166 265 150 265C121 265 100 239 100 214Z" />
    </g>
</svg>