<svg xmlns="http://www.w3.org/2000/svg" viewBox="0 0 1000 1386">
    <g transform="translate(0, 1000) scale(1, -1)">
        <path d="M300 700C340 700 375 682 404 656C434 629 449 601 451 590C456 567 476 550 500 550C524 550 544 567 549 590C551 601 566 629 596 656C625 682 660 700 700 700C783 700 850 633 850 550C850 515 832 469 796 415C761 363 714 309 665 260C616 211 567 169 530 138C518 128 509 120 500 113C491 120 482 128 470 138C433 169 384 211 335 260C286 309 239 363 204 415C168 469 150 515 150 550C150 633 217 700 300 700ZM500 701C455 751 390 800 300 800C162 800 50 688 50 550C50 485 82 419 121 360C205 233 344 113 452 24C460 19 464 16 469 11C476 4 491 0 500 0C510 0 521 4 530 10C535 15 539 18 548 24C658 114 794 232 879 360C918 419 950 485 950 550C950 688 838 800 700 800C609 800 545 751 500 701Z" />
    </g>
</svg>