<svg xmlns="http://www.w3.org/2000/svg" viewBox="0 0 1000 1386">
    <g transform="translate(0, 1000) scale(1, -1)">
        <path d="M750 775C750 816 716 850 675 850C634 850 600 816 600 775C600 734 634 700 675 700C716 700 750 734 750 775ZM263 525C263 497 285 475 313 475H450V375H300C272 375 250 353 250 325C250 297 272 275 300 275H450V175H313C285 175 263 153 263 125C263 97 285 75 313 75H450V0C450 -28 472 -50 500 -50C528 -50 550 -28 550 0V75H687C715 75 737 97 737 125C737 153 715 175 687 175H550V275H700C728 275 750 297 750 325C750 353 728 375 700 375H550V475H687C715 475 737 497 737 525C737 553 715 575 687 575H550V650C550 678 528 700 500 700C472 700 450 678 450 650V575H313C285 575 263 553 263 525ZM325 700C366 700 400 734 400 775C400 816 366 850 325 850C284 850 250 816 250 775C250 734 284 700 325 700Z" />
    </g>
</svg>