<svg xmlns="http://www.w3.org/2000/svg" viewBox="0 0 1000 1386">
    <g transform="translate(0, 1000) scale(1, -1)">
        <path d="M502 729C474 729 451 708 451 680V619C451 591 473 569 501 569C529 569 552 591 552 619V679C552 707 530 729 502 729ZM649 528C662 528 675 533 685 543L735 593C745 602 750 615 750 627C750 653 727 678 701 678C688 678 675 673 665 663L615 613C605 603 600 591 600 578C600 552 622 528 649 528ZM250 627C250 615 255 602 265 593L315 543C325 533 338 528 351 528C378 528 401 552 401 579C401 591 396 604 386 613L336 663C326 673 313 678 300 678C273 678 250 654 250 627ZM500 280C486 280 470 288 470 300C470 328 448 350 420 350C392 350 370 328 370 300C370 228 435 180 500 180C565 180 630 228 630 300C630 328 608 350 580 350C552 350 530 328 530 300C530 288 515 280 500 280ZM500 60C638 60 750 172 750 310C750 448 638 560 500 560C362 560 250 448 250 310C250 172 362 60 500 60ZM650 310C650 227 583 160 500 160C417 160 350 227 350 310C350 393 417 460 500 460C583 460 650 393 650 310ZM225 750H775V50H225ZM125 800V0C125 -28 147 -50 175 -50H825C853 -50 875 -28 875 0V800C875 828 853 850 825 850H175C147 850 125 828 125 800Z" />
    </g>
</svg>