<svg xmlns="http://www.w3.org/2000/svg" viewBox="0 0 1000 1386">
    <g transform="translate(0, 1000) scale(1, -1)">
        <path d="M100 731C100 724 102 717 105 710L305 279C314 261 331 250 350 250C379 250 400 276 400 300C400 307 398 314 395 321L195 752C186 770 169 781 150 781C121 781 100 755 100 731ZM850 781C831 781 814 770 805 752L605 321C602 314 600 307 600 300C600 276 621 250 650 250C669 250 686 261 695 279L896 710C899 717 901 723 901 730C901 754 880 781 850 781ZM500 850C472 850 450 828 450 800V325C450 297 472 275 500 275C528 275 550 297 550 325V800C550 828 528 850 500 850ZM575 25C575 66 541 100 500 100C459 100 425 66 425 25C425 -16 459 -50 500 -50C541 -50 575 -16 575 25Z" />
    </g>
</svg>