<svg xmlns="http://www.w3.org/2000/svg" viewBox="0 0 1000 1386">
    <g transform="translate(0, 1000) scale(1, -1)">
        <path d="M425 25C425 -16 459 -50 500 -50C541 -50 575 -16 575 25C575 66 541 100 500 100C459 100 425 66 425 25ZM259 600C259 619 244 631 244 650C244 664 247 675 253 685C263 701 282 718 316 732C358 749 421 760 500 760C579 760 641 749 683 732C717 718 737 701 747 685C753 675 756 664 756 650C756 635 750 622 726 602C707 587 679 571 648 553C570 508 450 442 450 300V250C450 222 472 200 500 200C528 200 550 222 550 250V300C550 376 612 416 699 466C737 488 777 510 809 543C835 569 856 606 856 650C856 743 790 796 721 824C662 848 588 860 500 860C412 860 337 848 278 824C209 796 144 743 144 650C144 609 163 550 209 550C237 550 259 572 259 600Z" />
    </g>
</svg>