<svg xmlns="http://www.w3.org/2000/svg" viewBox="0 0 1000 1386">
    <g transform="translate(0, 1000) scale(1, -1)">
        <path d="M220 62C241 20 276 -30 340 -30C403 -30 437 23 455 64C457 68 458 71 460 75C462 71 463 68 465 64C483 23 517 -30 580 -30C644 -30 679 27 696 71C749 207 750 486 750 649V650C750 678 728 700 700 700C672 700 650 678 650 650V631C650 477 649 226 603 107C595 86 589 77 580 70H579C570 77 564 85 556 104C542 136 531 183 524 237C513 320 510 410 510 465V503C510 530 487 553 460 553C433 553 410 531 410 504V465C408 371 397 180 364 104C356 85 350 77 341 70H340C338 70 329 70 315 96C302 121 291 157 284 197C277 236 274 276 272 306C271 321 270 334 270 343V356C270 384 248 406 220 406C192 406 170 384 170 356V343C170 334 169 321 168 306C166 276 163 236 156 197C149 157 138 121 125 96C111 70 102 70 100 70C72 70 50 48 50 20C50 -8 72 -30 100 -30C164 -30 199 20 220 62ZM900 -40C928 -40 950 -18 950 10V770C950 798 928 820 900 820C872 820 850 798 850 770V10C850 -18 872 -40 900 -40Z" />
    </g>
</svg>