<svg xmlns="http://www.w3.org/2000/svg" viewBox="0 0 1000 1386">
    <g transform="translate(0, 1000) scale(1, -1)">
        <path d="M500 150C638 150 750 262 750 400C750 538 638 650 500 650C362 650 250 538 250 400C250 262 362 150 500 150ZM650 400C650 317 583 250 500 250C417 250 350 317 350 400C350 483 417 550 500 550C583 550 650 483 650 400ZM500 -50C749 -50 950 151 950 400C950 649 749 850 500 850C251 850 50 649 50 400C50 151 251 -50 500 -50ZM500 50C307 50 150 207 150 400C150 593 307 750 500 750C693 750 850 593 850 400C850 207 693 50 500 50Z" />
    </g>
</svg>