<svg xmlns="http://www.w3.org/2000/svg" viewBox="0 0 1000 1386">
    <g transform="translate(0, 1000) scale(1, -1)">
        <path d="M600 200C600 145 555 100 500 100C445 100 400 145 400 200C400 255 445 300 500 300C555 300 600 255 600 200ZM450 800C429 800 409 785 402 764V763C402 762 401 761 401 760C400 757 399 754 398 749C381 692 369 643 351 567C326 456 300 313 300 200C300 90 390 0 500 0C610 0 700 90 700 200C700 310 610 400 500 400C470 400 442 394 417 382C433 479 462 601 483 681C488 698 491 712 494 721C495 726 496 730 497 732V734L498 735V736C499 741 500 745 500 750C500 774 480 800 450 800Z" />
    </g>
</svg>