<svg xmlns="http://www.w3.org/2000/svg" viewBox="0 0 1000 1386">
    <g transform="translate(0, 1000) scale(1, -1)">
        <path d="M720 403C720 436 693 463 660 463C627 463 600 436 600 403C600 370 627 343 660 343C693 343 720 370 720 403ZM560 403C560 436 533 463 500 463C467 463 440 436 440 403C440 370 467 343 500 343C533 343 560 370 560 403ZM400 400C400 433 373 460 340 460C307 460 280 433 280 400C280 367 307 340 340 340C373 340 400 367 400 400ZM250 700H750V100H250ZM150 750V50C150 22 172 0 200 0H800C828 0 850 22 850 50V750C850 778 828 800 800 800H200C172 800 150 778 150 750Z" />
    </g>
</svg>