<svg xmlns="http://www.w3.org/2000/svg" viewBox="0 0 1000 1386">
    <g transform="translate(0, 1000) scale(1, -1)">
        <path d="M340 450H660V100H340ZM240 500V50C240 22 262 0 290 0H710C738 0 760 22 760 50V500C760 528 738 550 710 550H290C262 550 240 528 240 500ZM750 783C733 783 716 774 707 758L657 671C652 663 650 655 650 646C650 621 671 596 700 596C717 596 734 605 743 621L793 708C798 716 800 724 800 733C800 758 779 783 750 783ZM200 733C200 724 202 716 207 708L257 621C266 605 283 596 300 596C329 596 350 621 350 646C350 655 348 663 343 671L293 758C284 774 267 783 250 783C221 783 200 758 200 733ZM500 850C472 850 450 828 450 800V700C450 672 472 650 500 650C528 650 550 672 550 700V800C550 828 528 850 500 850Z" />
    </g>
</svg>