<svg xmlns="http://www.w3.org/2000/svg" viewBox="0 0 1000 1386">
    <g transform="translate(0, 1000) scale(1, -1)">
        <path d="M140 850C112 850 90 828 90 800C90 772 112 750 140 750H590C728 750 840 638 840 500C840 362 728 250 590 250C562 250 540 228 540 200V0C540 -28 562 -50 590 -50C618 -50 640 -28 640 0V154C810 178 940 324 940 500C940 693 783 850 590 850ZM490 500C490 541 456 575 415 575C374 575 340 541 340 500C340 459 374 425 415 425C456 425 490 459 490 500ZM720 500C720 541 686 575 645 575C604 575 570 541 570 500C570 459 604 425 645 425C686 425 720 459 720 500ZM270 250C242 250 220 228 220 200V0C220 -28 242 -50 270 -50C298 -50 320 -28 320 0V200C320 228 298 250 270 250ZM110 250C82 250 60 228 60 200V0C60 -28 82 -50 110 -50C138 -50 160 -28 160 0V200C160 228 138 250 110 250ZM430 250C402 250 380 228 380 200V0C380 -28 402 -50 430 -50C458 -50 480 -28 480 0V200C480 228 458 250 430 250Z" />
    </g>
</svg>