<svg xmlns="http://www.w3.org/2000/svg" viewBox="0 0 1000 1386">
    <g transform="translate(0, 1000) scale(1, -1)">
        <path d="M250 406C362 379 434 343 483 294C529 249 560 188 583 100H250ZM250 569V700H750V609C675 626 594 640 513 640C412 640 328 622 250 569ZM686 100C661 210 622 297 553 365C494 423 416 463 315 492C364 522 421 536 483 539C492 539 501 540 511 540C589 540 671 526 750 507V100ZM200 800C172 800 150 778 150 750V50C150 22 172 0 200 0H800C828 0 850 22 850 50V750C850 778 828 800 800 800Z" />
    </g>
</svg>