<svg xmlns="http://www.w3.org/2000/svg" viewBox="0 0 1000 1386">
    <g transform="translate(0, 1000) scale(1, -1)">
        <path d="M849 850C834 850 821 844 811 831C690 675 602 481 544 323C527 276 512 232 500 192C488 232 473 276 456 323C398 481 310 675 189 831C179 844 166 850 151 850C123 850 100 827 100 801C100 790 104 778 111 769C223 625 306 443 362 289C418 135 446 13 451 -10C456 -33 476 -50 500 -50C524 -50 544 -33 549 -10C554 13 582 135 638 289C694 443 777 625 889 769C896 778 900 790 900 801C900 827 877 850 849 850Z" />
    </g>
</svg>