<svg xmlns="http://www.w3.org/2000/svg" viewBox="0 0 1000 1386">
    <g transform="translate(0, 1000) scale(1, -1)">
        <path d="M500 600C610 600 700 510 700 400C700 290 610 200 500 200C390 200 300 290 300 400C300 510 390 600 500 600ZM450 800V696C324 675 225 576 204 450H100C72 450 50 428 50 400C50 372 72 350 100 350H204C225 224 324 125 450 104V0C450 -28 472 -50 500 -50C528 -50 550 -28 550 0V104C676 125 775 224 796 350H900C928 350 950 372 950 400C950 428 928 450 900 450H796C775 576 676 675 550 696V800C550 828 528 850 500 850C472 850 450 828 450 800Z" />
    </g>
</svg>