<svg xmlns="http://www.w3.org/2000/svg" viewBox="0 0 1000 1386">
    <g transform="translate(0, 1000) scale(1, -1)">
        <path d="M580 175C580 216 546 250 505 250C464 250 430 216 430 175C430 134 464 100 505 100C546 100 580 134 580 175ZM600 450C612 450 625 455 635 465L750 579L865 465C875 455 888 450 900 450C926 450 950 474 950 500C950 512 945 525 935 535L785 685C775 695 762 700 750 700C738 700 725 695 715 685L565 535C555 525 550 512 550 500C550 474 574 450 600 450ZM100 450C112 450 125 455 135 465L250 579L365 465C375 455 388 450 400 450C426 450 450 474 450 500C450 512 445 525 435 535L285 685C275 695 262 700 250 700C238 700 225 695 215 685L65 535C55 525 50 512 50 500C50 474 74 450 100 450Z" />
    </g>
</svg>