<svg xmlns="http://www.w3.org/2000/svg" viewBox="0 0 1000 1386">
    <g transform="translate(0, 1000) scale(1, -1)">
        <path d="M891 150C914 150 935 166 940 189C947 217 950 245 950 275C950 482 782 650 575 650C385 650 228 509 203 326L145 395C135 407 121 413 107 413C80 413 57 389 57 363C57 352 61 340 69 331L205 168C215 156 230 150 244 150C255 150 267 154 276 162L438 298C450 308 456 323 456 337C456 364 432 387 406 387C395 387 383 383 374 375L303 315C323 448 437 550 575 550C727 550 850 427 850 275C850 253 848 231 843 211C842 207 842 204 842 200C842 174 861 150 891 150Z" />
    </g>
</svg>