<svg xmlns="http://www.w3.org/2000/svg" viewBox="0 0 1000 1386">
    <g transform="translate(0, 1000) scale(1, -1)">
        <path d="M210 151 397 610 603 33C610 13 629 0 650 0C761 0 850 31 932 99C944 109 950 124 950 138C950 165 926 188 900 188C889 188 877 184 868 176C814 131 757 107 685 101L447 767C440 787 422 800 401 800C380 800 362 788 354 769L104 156C101 150 100 143 100 137C100 126 104 115 111 106H112C112 106 112 105 113 104C134 83 149 69 183 50C230 24 301 0 400 0C428 0 450 22 450 50C450 78 428 100 400 100C303 100 252 123 210 151Z" />
    </g>
</svg>