<svg xmlns="http://www.w3.org/2000/svg" viewBox="0 0 1000 1386">
    <g transform="translate(0, 1000) scale(1, -1)">
        <path d="M899 726C877 726 859 712 852 690C841 650 832 623 817 602C804 584 784 567 742 556C728 552 715 550 702 550C646 550 600 584 532 639C529 641 528 641 525 644C461 695 392 750 299 750C208 750 135 705 100 655C73 617 60 574 51 536C50 532 49 528 49 524C49 500 70 473 100 473C122 473 143 489 149 512C159 550 166 576 181 597C194 615 215 633 258 644C273 648 286 650 299 650C354 650 399 616 468 561C471 559 472 559 475 556C538 506 608 450 701 450C793 450 864 495 899 545C924 581 937 622 947 658C947 659 948 661 948 662C949 667 950 672 950 677C950 702 930 726 899 726ZM899 326C877 326 859 312 852 290C841 250 832 223 817 202C804 184 784 167 742 156C728 152 715 150 702 150C646 150 600 184 532 239C529 241 528 241 525 244C461 295 392 350 299 350C208 350 135 305 100 255C73 217 60 174 51 136C50 132 49 128 49 124C49 100 70 73 100 73C122 73 143 89 149 112C159 150 166 176 181 197C194 215 215 233 258 244C273 248 286 250 299 250C354 250 399 216 468 161C471 159 472 159 475 156C538 106 608 50 701 50C793 50 864 95 899 145C924 181 937 222 947 258C947 259 948 261 948 262C949 267 950 272 950 277C950 302 930 326 899 326Z" />
    </g>
</svg>