<svg xmlns="http://www.w3.org/2000/svg" viewBox="0 0 1000 1386">
    <g transform="translate(0, 1000) scale(1, -1)">
        <path d="M485 700C457 700 435 678 435 650V375C435 347 457 325 485 325H635C663 325 685 347 685 375C685 403 663 425 635 425H535V650C535 678 513 700 485 700ZM500 -50C749 -50 950 151 950 400C950 649 749 850 500 850C251 850 50 649 50 400C50 151 251 -50 500 -50ZM500 50C307 50 150 207 150 400C150 593 307 750 500 750C693 750 850 593 850 400C850 207 693 50 500 50Z" />
    </g>
</svg>