<svg xmlns="http://www.w3.org/2000/svg" viewBox="0 0 1000 1386">
    <g transform="translate(0, 1000) scale(1, -1)">
        <path d="M500 310C390 310 300 400 300 510C300 546 310 580 326 609L328 611C363 670 427 710 500 710C573 710 638 670 673 611V610L674 609C691 580 700 546 700 510C700 400 610 310 500 310ZM50 741C50 724 59 707 75 698L219 615C207 582 200 547 200 510C200 361 308 238 450 214V48C450 20 472 -2 500 -2C528 -2 550 20 550 48V214C692 238 800 361 800 510C800 547 793 582 781 615L925 698C941 707 951 725 951 742C951 771 925 791 900 791C891 791 883 789 875 784L731 701C676 767 593 810 500 810C407 810 324 767 269 701L125 784C117 789 109 791 100 791C75 791 50 770 50 741Z" />
    </g>
</svg>