<svg xmlns="http://www.w3.org/2000/svg" viewBox="0 0 1000 1386">
    <g transform="translate(0, 1000) scale(1, -1)">
        <path d="M170 85C149 85 132 103 132 124C132 134 134 141 140 148C230 252 321 357 411 461C439 494 457 538 457 591C457 705 364 798 250 798C136 798 43 705 43 591C43 566 60 557 79 557C104 557 132 573 132 591C132 656 185 709 250 709C315 709 368 656 368 591C368 575 367 546 341 516L74 207C55 185 43 156 43 124C43 54 100 -3 170 -3H413C437 -3 457 17 457 42C457 67 437 85 413 85Z" />
    </g>
</svg>