<svg xmlns="http://www.w3.org/2000/svg" viewBox="0 0 1000 1386">
    <g transform="translate(0, 1000) scale(1, -1)">
        <path d="M635 284C637 272 638 261 638 251C638 191 622 146 599 117C577 89 544 72 500 72C456 72 424 89 402 117C379 146 363 191 363 251C363 261 364 272 366 284C409 278 454 275 500 275C546 275 592 278 635 284ZM568 664C597 690 646 709 687 709C748 709 802 677 824 639C835 620 841 596 841 570C841 517 815 456 752 420C741 413 725 407 707 401C674 497 624 590 568 664ZM500 587C542 529 582 451 608 381C574 377 537 375 500 375C463 375 426 377 392 381C418 451 458 529 500 587ZM433 664C377 590 326 496 293 401C275 407 260 413 249 420C186 456 160 517 160 570C160 596 166 620 177 639C199 677 252 709 313 709C354 709 404 690 433 664ZM500 -28C573 -28 635 1 677 54C718 105 738 175 738 251C738 268 736 285 733 304C758 312 782 321 802 333C898 388 940 482 940 569C940 612 930 655 910 689C869 759 782 809 686 809C639 809 590 797 544 770C529 761 514 751 500 738C486 751 471 761 456 770C410 797 361 809 314 809C218 809 131 759 90 689C70 655 60 613 60 570C60 482 103 388 199 333C219 321 243 312 268 304C265 285 263 268 263 251C263 175 282 105 323 54C365 1 427 -28 500 -28Z" />
    </g>
</svg>