<svg xmlns="http://www.w3.org/2000/svg" viewBox="0 0 1000 1386">
    <g transform="translate(0, 1000) scale(1, -1)">
        <path d="M762 800C747 800 732 793 722 780L500 484L278 780C268 793 253 800 238 800C210 800 188 776 188 750C188 740 191 729 198 720L438 400L255 156L197 328C190 349 171 363 150 363C120 363 100 338 100 313C100 308 101 302 103 297L190 34C196 16 211 4 229 1C232 1 234 0 237 0C252 0 268 7 277 20L500 317L723 20C732 7 748 0 763 0C766 0 768 1 771 1C789 4 804 16 810 34L897 297C899 302 900 308 900 313C900 338 880 363 850 363C829 363 810 349 803 328L745 156L562 400L802 720C809 729 812 740 812 750C812 776 790 800 762 800Z" />
    </g>
</svg>