<svg xmlns="http://www.w3.org/2000/svg" viewBox="0 0 1000 1386">
    <g transform="translate(0, 1000) scale(1, -1)">
        <path d="M402 -50C438 -50 474 -34 500 -11C526 -34 562 -50 598 -50C716 -50 769 56 769 172C769 267 732 336 699 380C689 393 674 400 659 400C649 400 638 397 629 390C616 380 609 365 609 350C609 340 612 329 619 320C643 288 669 239 669 172C669 132 661 99 648 78C637 60 623 50 598 50C577 50 552 74 550 95C548 121 528 140 500 140C472 140 452 121 450 95C448 74 423 50 402 50C377 50 363 60 352 78C339 99 331 132 331 172C331 239 357 288 381 320C388 329 391 340 391 350C391 365 384 380 371 390C362 397 351 400 341 400C326 400 311 393 301 380C268 336 231 267 231 172C231 56 284 -50 402 -50ZM500 850C472 850 450 828 450 800V450C450 422 472 400 500 400C528 400 550 422 550 450V800C550 828 528 850 500 850Z" />
    </g>
</svg>