<svg xmlns="http://www.w3.org/2000/svg" viewBox="0 0 1000 1386">
    <g transform="translate(0, 1000) scale(1, -1)">
        <path d="M649 368C650 366 650 364 651 362C652 360 654 358 655 356L803 100H197L346 358C348 360 348 364 350 366L500 625ZM50 505C50 488 59 471 75 462L237 369L67 75C63 67 60 59 60 50C60 21 84 0 110 0H890C916 0 940 21 940 50C940 59 937 67 933 75L763 369L925 462C941 471 950 488 950 505C950 534 925 555 900 555C891 555 883 553 875 548L713 455L543 750C534 765 518 775 500 775C482 775 466 765 457 750L287 455L125 548C117 553 109 555 100 555C75 555 50 534 50 505Z" />
    </g>
</svg>