<svg xmlns="http://www.w3.org/2000/svg" viewBox="0 0 1000 1386">
    <g transform="translate(0, 1000) scale(1, -1)">
        <path d="M378 405C378 446 344 480 303 480C262 480 228 446 228 405C228 364 262 330 303 330C344 330 378 364 378 405ZM573 405C573 446 539 480 498 480C457 480 423 446 423 405C423 364 457 330 498 330C539 330 573 364 573 405ZM373 800C373 791 376 781 381 773L682 300H273C245 300 223 278 223 250V0C223 -28 245 -50 273 -50C301 -50 323 -28 323 0V200H773C798 200 823 220 823 250C823 260 820 269 815 277L465 827C455 842 439 850 423 850C394 850 373 825 373 800Z" />
    </g>
</svg>