<svg xmlns="http://www.w3.org/2000/svg" viewBox="0 0 1000 1386">
    <g transform="translate(0, 1000) scale(1, -1)">
        <path d="M92 754C68 750 50 729 50 705C50 703 51 700 51 697L141 147C145 123 166 105 190 105C192 105 195 106 198 106C222 110 240 131 240 155C240 157 239 160 239 163L149 713C145 737 124 755 100 755C98 755 95 754 92 754ZM908 754C905 754 902 755 900 755C876 755 855 737 851 713L761 163C761 160 760 157 760 155C760 131 778 110 802 106C805 106 808 105 810 105C834 105 855 123 859 147L949 697C949 700 950 703 950 705C950 729 932 750 908 754ZM240 305C240 161 356 45 500 45C644 45 760 161 760 305C760 449 644 565 500 565C356 565 240 449 240 305ZM500 465C588 465 660 393 660 305C660 217 588 145 500 145C412 145 340 217 340 305C340 393 412 465 500 465Z" />
    </g>
</svg>