<svg xmlns="http://www.w3.org/2000/svg" viewBox="0 0 1000 1386">
    <g transform="translate(0, 1000) scale(1, -1)">
        <path d="M86 746C86 733 92 720 102 710L330 497C339 488 351 484 363 484C389 484 414 507 414 534C414 547 408 560 398 570L170 783C161 792 149 796 137 796C111 796 86 773 86 746ZM863 796C851 796 839 792 830 783L602 570C592 560 586 547 586 534C586 507 611 484 637 484C649 484 661 488 670 497L898 710C908 720 914 733 914 746C914 773 889 796 863 796ZM363 316C351 316 339 312 330 303L102 90C92 80 86 67 86 54C86 27 111 4 137 4C149 4 161 8 170 17L398 230C408 240 414 253 414 266C414 293 389 316 363 316ZM586 266C586 253 592 240 602 230L830 17C839 8 851 4 863 4C889 4 914 27 914 54C914 67 908 80 898 90L670 303C661 312 649 316 637 316C611 316 586 293 586 266Z" />
    </g>
</svg>