<svg xmlns="http://www.w3.org/2000/svg" viewBox="0 0 1000 1386">
    <g transform="translate(0, 1000) scale(1, -1)">
        <path d="M210 775C195 775 180 768 170 755C113 679 50 561 50 399C50 311 66 223 108 154C152 82 223 35 322 35C373 35 426 57 468 92C480 102 490 114 500 126C510 114 520 102 532 92C574 57 627 35 678 35C777 35 848 82 892 154C934 223 950 311 950 399C950 561 887 679 830 755C820 768 805 775 790 775C762 775 740 751 740 725C740 715 743 704 750 695C798 631 850 534 850 399C850 262 810 135 678 135C654 135 623 147 597 169C571 191 554 220 550 254C550 258 548 261 547 265C540 284 526 300 500 300C475 300 459 284 453 265C452 261 450 258 450 254C446 220 429 191 403 169C377 147 346 135 322 135C261 135 220 162 193 206C164 253 150 321 150 399C150 534 202 631 250 695C257 704 260 715 260 725C260 751 238 775 210 775Z" />
    </g>
</svg>